<mxfile host="app.diagrams.net" modified="2024-05-08T08:37:21.584Z" agent="Mozilla/5.0 (Windows NT 10.0; Win64; x64) AppleWebKit/537.36 (KHTML, like Gecko) Chrome/124.0.0.0 Safari/537.36" etag="nJaClPWcBdZOTx3ylRBi" version="24.3.1" type="github">
  <diagram name="Page-1" id="OTGd4G0PkpE-QDt8oMw1">
    <mxGraphModel dx="1050" dy="565" grid="1" gridSize="10" guides="1" tooltips="1" connect="1" arrows="1" fold="1" page="1" pageScale="1" pageWidth="850" pageHeight="1100" math="0" shadow="0">
      <root>
        <mxCell id="0" />
        <mxCell id="1" parent="0" />
        <mxCell id="KsavNoR4gBIfkhVgeA7k-1" value="USER" style="rounded=0;whiteSpace=wrap;html=1;" vertex="1" parent="1">
          <mxGeometry x="200" y="350" width="100" height="50" as="geometry" />
        </mxCell>
        <mxCell id="KsavNoR4gBIfkhVgeA7k-2" value="CONTACT" style="rounded=0;whiteSpace=wrap;html=1;" vertex="1" parent="1">
          <mxGeometry x="600" y="350" width="100" height="50" as="geometry" />
        </mxCell>
        <mxCell id="KsavNoR4gBIfkhVgeA7k-3" value="enabled" style="ellipse;whiteSpace=wrap;html=1;" vertex="1" parent="1">
          <mxGeometry x="20" y="330" width="90" height="70" as="geometry" />
        </mxCell>
        <mxCell id="KsavNoR4gBIfkhVgeA7k-7" value="role" style="ellipse;whiteSpace=wrap;html=1;" vertex="1" parent="1">
          <mxGeometry x="20" y="240" width="90" height="70" as="geometry" />
        </mxCell>
        <mxCell id="KsavNoR4gBIfkhVgeA7k-8" value="id(primary key)" style="ellipse;whiteSpace=wrap;html=1;" vertex="1" parent="1">
          <mxGeometry x="30" y="160" width="90" height="70" as="geometry" />
        </mxCell>
        <mxCell id="KsavNoR4gBIfkhVgeA7k-9" value="name" style="ellipse;whiteSpace=wrap;html=1;" vertex="1" parent="1">
          <mxGeometry x="100" y="90" width="90" height="70" as="geometry" />
        </mxCell>
        <mxCell id="KsavNoR4gBIfkhVgeA7k-10" value="email" style="ellipse;whiteSpace=wrap;html=1;" vertex="1" parent="1">
          <mxGeometry x="200" y="70" width="90" height="70" as="geometry" />
        </mxCell>
        <mxCell id="KsavNoR4gBIfkhVgeA7k-11" value="password" style="ellipse;whiteSpace=wrap;html=1;" vertex="1" parent="1">
          <mxGeometry x="290" y="100" width="90" height="70" as="geometry" />
        </mxCell>
        <mxCell id="KsavNoR4gBIfkhVgeA7k-12" value="image" style="ellipse;whiteSpace=wrap;html=1;" vertex="1" parent="1">
          <mxGeometry x="335" y="170" width="90" height="70" as="geometry" />
        </mxCell>
        <mxCell id="KsavNoR4gBIfkhVgeA7k-13" value="about" style="ellipse;whiteSpace=wrap;html=1;" vertex="1" parent="1">
          <mxGeometry x="345" y="250" width="90" height="70" as="geometry" />
        </mxCell>
        <mxCell id="KsavNoR4gBIfkhVgeA7k-14" value="phone" style="ellipse;whiteSpace=wrap;html=1;" vertex="1" parent="1">
          <mxGeometry x="460" y="250" width="90" height="70" as="geometry" />
        </mxCell>
        <mxCell id="KsavNoR4gBIfkhVgeA7k-15" value="descirption" style="ellipse;whiteSpace=wrap;html=1;" vertex="1" parent="1">
          <mxGeometry x="470" y="170" width="90" height="70" as="geometry" />
        </mxCell>
        <mxCell id="KsavNoR4gBIfkhVgeA7k-16" value="cid" style="ellipse;whiteSpace=wrap;html=1;" vertex="1" parent="1">
          <mxGeometry x="510" y="100" width="90" height="70" as="geometry" />
        </mxCell>
        <mxCell id="KsavNoR4gBIfkhVgeA7k-17" value="name" style="ellipse;whiteSpace=wrap;html=1;" vertex="1" parent="1">
          <mxGeometry x="610" y="70" width="90" height="70" as="geometry" />
        </mxCell>
        <mxCell id="KsavNoR4gBIfkhVgeA7k-18" value="nickname" style="ellipse;whiteSpace=wrap;html=1;" vertex="1" parent="1">
          <mxGeometry x="710" y="90" width="90" height="70" as="geometry" />
        </mxCell>
        <mxCell id="KsavNoR4gBIfkhVgeA7k-19" value="work" style="ellipse;whiteSpace=wrap;html=1;" vertex="1" parent="1">
          <mxGeometry x="740" y="160" width="90" height="70" as="geometry" />
        </mxCell>
        <mxCell id="KsavNoR4gBIfkhVgeA7k-20" value="email" style="ellipse;whiteSpace=wrap;html=1;" vertex="1" parent="1">
          <mxGeometry x="760" y="240" width="90" height="70" as="geometry" />
        </mxCell>
        <mxCell id="KsavNoR4gBIfkhVgeA7k-21" value="image" style="ellipse;whiteSpace=wrap;html=1;" vertex="1" parent="1">
          <mxGeometry x="770" y="320" width="90" height="70" as="geometry" />
        </mxCell>
        <mxCell id="KsavNoR4gBIfkhVgeA7k-22" value="" style="endArrow=none;html=1;rounded=0;entryX=1;entryY=0.5;entryDx=0;entryDy=0;exitX=0;exitY=0.25;exitDx=0;exitDy=0;" edge="1" parent="1" source="KsavNoR4gBIfkhVgeA7k-1" target="KsavNoR4gBIfkhVgeA7k-3">
          <mxGeometry width="50" height="50" relative="1" as="geometry">
            <mxPoint x="400" y="320" as="sourcePoint" />
            <mxPoint x="450" y="270" as="targetPoint" />
          </mxGeometry>
        </mxCell>
        <mxCell id="KsavNoR4gBIfkhVgeA7k-24" value="" style="endArrow=none;html=1;rounded=0;entryX=1.018;entryY=0.7;entryDx=0;entryDy=0;exitX=0;exitY=0;exitDx=0;exitDy=0;entryPerimeter=0;" edge="1" parent="1" source="KsavNoR4gBIfkhVgeA7k-1" target="KsavNoR4gBIfkhVgeA7k-7">
          <mxGeometry width="50" height="50" relative="1" as="geometry">
            <mxPoint x="210" y="373" as="sourcePoint" />
            <mxPoint x="120" y="375" as="targetPoint" />
          </mxGeometry>
        </mxCell>
        <mxCell id="KsavNoR4gBIfkhVgeA7k-27" value="" style="endArrow=none;html=1;rounded=0;exitX=0.148;exitY=0.028;exitDx=0;exitDy=0;exitPerimeter=0;" edge="1" parent="1" source="KsavNoR4gBIfkhVgeA7k-1">
          <mxGeometry width="50" height="50" relative="1" as="geometry">
            <mxPoint x="230" y="380" as="sourcePoint" />
            <mxPoint x="120" y="210" as="targetPoint" />
            <Array as="points">
              <mxPoint x="120" y="210" />
            </Array>
          </mxGeometry>
        </mxCell>
        <mxCell id="KsavNoR4gBIfkhVgeA7k-28" value="" style="endArrow=none;html=1;rounded=0;exitX=0.25;exitY=0;exitDx=0;exitDy=0;entryX=0.76;entryY=1.037;entryDx=0;entryDy=0;entryPerimeter=0;" edge="1" parent="1" source="KsavNoR4gBIfkhVgeA7k-1" target="KsavNoR4gBIfkhVgeA7k-9">
          <mxGeometry width="50" height="50" relative="1" as="geometry">
            <mxPoint x="225" y="361" as="sourcePoint" />
            <mxPoint x="130" y="220" as="targetPoint" />
            <Array as="points" />
          </mxGeometry>
        </mxCell>
        <mxCell id="KsavNoR4gBIfkhVgeA7k-29" value="" style="endArrow=none;html=1;rounded=0;exitX=0.38;exitY=-0.004;exitDx=0;exitDy=0;entryX=0.5;entryY=1;entryDx=0;entryDy=0;exitPerimeter=0;" edge="1" parent="1" source="KsavNoR4gBIfkhVgeA7k-1" target="KsavNoR4gBIfkhVgeA7k-10">
          <mxGeometry width="50" height="50" relative="1" as="geometry">
            <mxPoint x="235" y="360" as="sourcePoint" />
            <mxPoint x="178" y="173" as="targetPoint" />
            <Array as="points" />
          </mxGeometry>
        </mxCell>
        <mxCell id="KsavNoR4gBIfkhVgeA7k-30" value="" style="endArrow=none;html=1;rounded=0;entryX=0.071;entryY=0.814;entryDx=0;entryDy=0;entryPerimeter=0;" edge="1" parent="1" target="KsavNoR4gBIfkhVgeA7k-11">
          <mxGeometry width="50" height="50" relative="1" as="geometry">
            <mxPoint x="250" y="350" as="sourcePoint" />
            <mxPoint x="255" y="150" as="targetPoint" />
            <Array as="points" />
          </mxGeometry>
        </mxCell>
        <mxCell id="KsavNoR4gBIfkhVgeA7k-31" value="" style="endArrow=none;html=1;rounded=0;entryX=0.042;entryY=0.683;entryDx=0;entryDy=0;entryPerimeter=0;" edge="1" parent="1" target="KsavNoR4gBIfkhVgeA7k-12">
          <mxGeometry width="50" height="50" relative="1" as="geometry">
            <mxPoint x="270" y="350" as="sourcePoint" />
            <mxPoint x="306" y="167" as="targetPoint" />
            <Array as="points" />
          </mxGeometry>
        </mxCell>
        <mxCell id="KsavNoR4gBIfkhVgeA7k-32" value="" style="endArrow=none;html=1;rounded=0;entryX=0;entryY=1;entryDx=0;entryDy=0;exitX=1;exitY=0;exitDx=0;exitDy=0;" edge="1" parent="1" source="KsavNoR4gBIfkhVgeA7k-1" target="KsavNoR4gBIfkhVgeA7k-13">
          <mxGeometry width="50" height="50" relative="1" as="geometry">
            <mxPoint x="278" y="363" as="sourcePoint" />
            <mxPoint x="349" y="228" as="targetPoint" />
            <Array as="points" />
          </mxGeometry>
        </mxCell>
        <mxCell id="KsavNoR4gBIfkhVgeA7k-33" value="" style="endArrow=none;html=1;rounded=0;entryX=1;entryY=1;entryDx=0;entryDy=0;exitX=0.076;exitY=-0.036;exitDx=0;exitDy=0;exitPerimeter=0;" edge="1" parent="1" source="KsavNoR4gBIfkhVgeA7k-2" target="KsavNoR4gBIfkhVgeA7k-14">
          <mxGeometry width="50" height="50" relative="1" as="geometry">
            <mxPoint x="310" y="360" as="sourcePoint" />
            <mxPoint x="368" y="320" as="targetPoint" />
            <Array as="points" />
          </mxGeometry>
        </mxCell>
        <mxCell id="KsavNoR4gBIfkhVgeA7k-34" value="" style="endArrow=none;html=1;rounded=0;entryX=0.987;entryY=0.717;entryDx=0;entryDy=0;exitX=0.164;exitY=-0.02;exitDx=0;exitDy=0;exitPerimeter=0;entryPerimeter=0;" edge="1" parent="1" source="KsavNoR4gBIfkhVgeA7k-2" target="KsavNoR4gBIfkhVgeA7k-15">
          <mxGeometry width="50" height="50" relative="1" as="geometry">
            <mxPoint x="618" y="358" as="sourcePoint" />
            <mxPoint x="547" y="320" as="targetPoint" />
            <Array as="points" />
          </mxGeometry>
        </mxCell>
        <mxCell id="KsavNoR4gBIfkhVgeA7k-35" value="" style="endArrow=none;html=1;rounded=0;entryX=1;entryY=1;entryDx=0;entryDy=0;exitX=0.332;exitY=-0.02;exitDx=0;exitDy=0;exitPerimeter=0;" edge="1" parent="1" source="KsavNoR4gBIfkhVgeA7k-2" target="KsavNoR4gBIfkhVgeA7k-16">
          <mxGeometry width="50" height="50" relative="1" as="geometry">
            <mxPoint x="626" y="359" as="sourcePoint" />
            <mxPoint x="569" y="230" as="targetPoint" />
            <Array as="points" />
          </mxGeometry>
        </mxCell>
        <mxCell id="KsavNoR4gBIfkhVgeA7k-36" value="" style="endArrow=none;html=1;rounded=0;entryX=0.5;entryY=1;entryDx=0;entryDy=0;exitX=0.5;exitY=0;exitDx=0;exitDy=0;" edge="1" parent="1" source="KsavNoR4gBIfkhVgeA7k-2" target="KsavNoR4gBIfkhVgeA7k-17">
          <mxGeometry width="50" height="50" relative="1" as="geometry">
            <mxPoint x="643" y="359" as="sourcePoint" />
            <mxPoint x="597" y="170" as="targetPoint" />
            <Array as="points" />
          </mxGeometry>
        </mxCell>
        <mxCell id="KsavNoR4gBIfkhVgeA7k-37" value="" style="endArrow=none;html=1;rounded=0;entryX=0.071;entryY=0.82;entryDx=0;entryDy=0;exitX=0.676;exitY=-0.036;exitDx=0;exitDy=0;entryPerimeter=0;exitPerimeter=0;" edge="1" parent="1" source="KsavNoR4gBIfkhVgeA7k-2" target="KsavNoR4gBIfkhVgeA7k-18">
          <mxGeometry width="50" height="50" relative="1" as="geometry">
            <mxPoint x="660" y="360" as="sourcePoint" />
            <mxPoint x="665" y="150" as="targetPoint" />
            <Array as="points" />
          </mxGeometry>
        </mxCell>
        <mxCell id="KsavNoR4gBIfkhVgeA7k-38" value="" style="endArrow=none;html=1;rounded=0;exitX=0.9;exitY=0.028;exitDx=0;exitDy=0;exitPerimeter=0;" edge="1" parent="1" source="KsavNoR4gBIfkhVgeA7k-2" target="KsavNoR4gBIfkhVgeA7k-19">
          <mxGeometry width="50" height="50" relative="1" as="geometry">
            <mxPoint x="678" y="358" as="sourcePoint" />
            <mxPoint x="726" y="157" as="targetPoint" />
            <Array as="points" />
          </mxGeometry>
        </mxCell>
        <mxCell id="KsavNoR4gBIfkhVgeA7k-39" value="" style="endArrow=none;html=1;rounded=0;exitX=0.9;exitY=0.028;exitDx=0;exitDy=0;exitPerimeter=0;entryX=0;entryY=1;entryDx=0;entryDy=0;" edge="1" parent="1" target="KsavNoR4gBIfkhVgeA7k-20">
          <mxGeometry width="50" height="50" relative="1" as="geometry">
            <mxPoint x="700" y="361" as="sourcePoint" />
            <mxPoint x="776" y="237" as="targetPoint" />
            <Array as="points" />
          </mxGeometry>
        </mxCell>
        <mxCell id="KsavNoR4gBIfkhVgeA7k-40" value="" style="endArrow=none;html=1;rounded=0;exitX=1;exitY=0.25;exitDx=0;exitDy=0;entryX=0;entryY=0.666;entryDx=0;entryDy=0;entryPerimeter=0;" edge="1" parent="1" source="KsavNoR4gBIfkhVgeA7k-2" target="KsavNoR4gBIfkhVgeA7k-21">
          <mxGeometry width="50" height="50" relative="1" as="geometry">
            <mxPoint x="710" y="371" as="sourcePoint" />
            <mxPoint x="783" y="310" as="targetPoint" />
            <Array as="points" />
          </mxGeometry>
        </mxCell>
        <mxCell id="KsavNoR4gBIfkhVgeA7k-41" value="has" style="rhombus;whiteSpace=wrap;html=1;" vertex="1" parent="1">
          <mxGeometry x="410" y="470" width="80" height="80" as="geometry" />
        </mxCell>
        <mxCell id="KsavNoR4gBIfkhVgeA7k-42" value="" style="endArrow=none;html=1;rounded=0;exitX=0.9;exitY=1.068;exitDx=0;exitDy=0;exitPerimeter=0;entryX=0;entryY=0.5;entryDx=0;entryDy=0;" edge="1" parent="1" source="KsavNoR4gBIfkhVgeA7k-1" target="KsavNoR4gBIfkhVgeA7k-41">
          <mxGeometry width="50" height="50" relative="1" as="geometry">
            <mxPoint x="400" y="320" as="sourcePoint" />
            <mxPoint x="450" y="270" as="targetPoint" />
          </mxGeometry>
        </mxCell>
        <mxCell id="KsavNoR4gBIfkhVgeA7k-43" value="" style="endArrow=none;html=1;rounded=0;exitX=0;exitY=1;exitDx=0;exitDy=0;entryX=1;entryY=0.5;entryDx=0;entryDy=0;" edge="1" parent="1" source="KsavNoR4gBIfkhVgeA7k-2" target="KsavNoR4gBIfkhVgeA7k-41">
          <mxGeometry width="50" height="50" relative="1" as="geometry">
            <mxPoint x="300" y="413" as="sourcePoint" />
            <mxPoint x="420" y="520" as="targetPoint" />
          </mxGeometry>
        </mxCell>
        <mxCell id="KsavNoR4gBIfkhVgeA7k-44" value="&lt;b&gt;1&lt;/b&gt;" style="text;html=1;align=center;verticalAlign=middle;whiteSpace=wrap;rounded=0;" vertex="1" parent="1">
          <mxGeometry x="305" y="440" width="60" height="30" as="geometry" />
        </mxCell>
        <mxCell id="KsavNoR4gBIfkhVgeA7k-45" value="&lt;b&gt;n&lt;/b&gt;" style="text;html=1;align=center;verticalAlign=middle;whiteSpace=wrap;rounded=0;" vertex="1" parent="1">
          <mxGeometry x="540" y="440" width="60" height="30" as="geometry" />
        </mxCell>
      </root>
    </mxGraphModel>
  </diagram>
</mxfile>
